Coordinates
nRows=243
nColumns=2
inDegrees=yes
endheader
time	ankle_angle_r	
2.79435	  0.042741	
2.82762	 -0.033650	
2.86089	  0.021716	
2.89415	 -0.076294	
2.92742	 -0.042354	
2.96069	 -0.023480	
2.99395	 -0.064651	
3.02722	  0.026805	
3.06048	  0.057226	
3.09375	 -0.041871	
3.12702	 -0.095555	
3.16028	 -0.029381	
3.19355	 -0.072098	
3.22681	 -0.093935	
3.26008	 -0.052257	
3.29335	 -0.045776	
3.32661	  0.045776	
3.35988	 -0.086874	
3.39315	 -0.086777	
3.42641	 -0.071422	
3.45968	 -0.010290	
3.49294	 -0.060974	
3.52621	 -0.061035	
3.55948	 -0.101552	
3.59274	 -0.040421	
3.62601	 -0.051229	
3.65927	  0.036067	
3.69254	 -0.091553	
3.72581	 -0.005743	
3.75907	 -0.045776	
3.79234	 -0.106812	
3.8256	  0.042583	
3.85887	  0.015259	
3.89214	 -0.137329	
3.9254	 -0.008936	
3.95867	 -0.052196	
3.99194	  0.021775	
4.0252	 -0.067648	
4.05847	 -0.037227	
4.09173	 -0.076294	
4.125	 -0.045776	
4.15827	 -0.127810	
4.19153	 -0.055005	
4.2248	 -0.061035	
4.25806	 -0.136649	
4.29133	 -0.037904	
4.3246	  0.015259	
4.35786	 -0.045677	
4.39113	 -0.068711	
4.4244	  0.007486	
4.45766	 -0.061035	
4.49093	 -0.076294	
4.52419	 -0.068231	
4.55746	 -0.030518	
4.59073	  0.016513	
4.62399	  0.015259	
4.65726	  0.015259	
4.69052	 -0.093387	
4.72379	  0.002027	
4.75706	 -0.008740	
4.79032	 -0.048191	
4.82359	  0.012651	
4.85685	 -0.030518	
4.89012	 -0.027380	
4.92339	 -0.112847	
4.95665	 -0.076294	
4.98992	  0.038627	
5.02319	 -0.095321	
5.05645	 -0.061035	
5.08972	 -0.070742	
5.12298	 -0.101356	
5.15625	 -0.116712	
5.18952	 -0.060508	
5.22278	 -0.091553	
5.25605	 -0.071225	
5.28931	 -0.071322	
5.32258	 -0.076294	
5.35585	 -0.081073	
5.38911	 -0.039881	
5.42238	 -0.067123	
5.45565	 -0.050265	
5.48891	  0.010867	
5.52218	 -0.065330	
5.55544	 -0.130467	
5.58871	 -0.080396	
5.62198	 -0.038528	
5.65524	 -0.087644	
5.68851	 -0.003812	
5.72177	 -0.034233	
5.75504	 -0.091553	
5.78831	 -0.045776	
5.82157	 -0.069444	
5.85484	  0.027189	
5.8881	 -0.015259	
5.92137	 -0.057900	
5.95464	  0.003038	
5.9879	 -0.058094	
6.02117	 -0.042931	
6.05444	  0.027769	
6.0877	 -0.035821	
6.12097	 -0.017814	
6.15423	  0.000000	
6.1875	 -0.025795	
6.22077	  0.012994	
6.25403	 -0.017427	
6.2873	 -0.041634	
6.32056	  0.043802	
6.35383	  0.045776	
6.3871	 -0.026955	
6.42036	 -0.038941	
6.45363	 -0.030518	
6.4869	 -0.002983	
6.52016	 -0.030518	
6.55343	 -0.092851	
6.58669	 -0.061035	
6.61996	 -0.090448	
6.65323	 -0.062043	
6.68649	 -0.031429	
6.71976	 -0.107626	
6.75302	 -0.075576	
6.78629	 -0.060414	
6.81956	 -0.107336	
6.85282	 -0.000856	
6.88609	  0.014266	
6.91935	  0.014790	
6.95262	 -0.076156	
6.98589	 -0.076294	
7.01915	 -0.061035	
7.05242	 -0.030365	
7.08569	 -0.045029	
7.11895	 -0.015605	
7.15222	 -0.167404	
7.18548	 -0.090475	
7.21875	 -0.076294	
7.25202	 -0.060303	
7.28528	  0.044947	
7.31855	 -0.061961	
7.35181	 -0.031540	
7.38508	 -0.091553	
7.41835	 -0.091553	
7.45161	 -0.165222	
7.48488	 -0.015259	
7.51815	 -0.001506	
7.55141	 -0.030518	
7.58468	 -0.061035	
7.61794	 -0.018851	
7.65121	  0.000000	
7.68448	 -0.017248	
7.71774	 -0.106812	
7.75101	 -0.063218	
7.78427	  0.002279	
7.81754	 -0.048152	
7.85081	 -0.045776	
7.88407	  0.002570	
7.91734	 -0.127403	
7.9506	  0.000000	
7.98387	 -0.027658	
8.01714	 -0.073338	
8.0504	 -0.067141	
8.08367	 -0.030518	
8.11694	 -0.033764	
8.1502	 -0.079637	
8.18347	 -0.049216	
8.21673	 -0.049313	
8.25	 -0.003633	
8.28327	  0.015259	
8.31653	 -0.091553	
8.3498	 -0.007846	
8.38306	 -0.030518	
8.41633	 -0.008233	
8.4496	 -0.054203	
8.48286	 -0.034827	
8.51613	 -0.080700	
8.5494	 -0.035021	
8.58266	  0.010659	
8.61593	 -0.019955	
8.64919	  0.015259	
8.68246	  0.015259	
8.71573	 -0.056049	
8.74899	 -0.020342	
8.78226	  0.101632	
8.81552	 -0.041071	
8.84879	  0.045776	
8.88206	 -0.010940	
8.91532	 -0.036084	
8.94859	 -0.019191	
8.98185	 -0.021019	
9.01512	 -0.097410	
9.04839	  0.030518	
9.08165	 -0.103653	
9.11492	 -0.118888	
9.14819	 -0.015259	
9.18145	 -0.012680	
9.21472	 -0.030518	
9.24798	 -0.015259	
9.28125	  0.000000	
9.31452	  0.015259	
9.34778	 -0.022082	
9.38105	  0.006920	
9.41431	 -0.031742	
9.44758	 -0.069180	
9.48085	 -0.046614	
9.51411	 -0.053728	
9.54738	  0.015259	
9.58065	  0.030002	
9.61391	  0.007662	
9.64718	 -0.053470	
9.68044	  0.015581	
9.71371	 -0.061551	
9.74698	 -0.014550	
9.78024	 -0.008081	
9.81351	 -0.106812	
9.84677	 -0.015259	
9.88004	  0.015259	
9.91331	 -0.044100	
9.94657	  0.061035	
9.97984	  0.041241	
10.0131	  0.037019	
10.0464	  0.100407	
10.0796	  0.021567	
10.1129	  0.045776	
10.1462	  0.109841	
10.1794	  0.009241	
10.2127	 -0.030518	
10.246	 -0.045776	
10.2792	 -0.057232	
10.3125	 -0.036149	
10.3458	  0.034707	
10.379	 -0.051214	
10.4123	 -0.061035	
10.4456	  0.000000	
10.4788	  0.010296	
10.5121	 -0.050827	
10.5454	 -0.050731	
10.5786	 -0.071436	
10.6119	 -0.157349	
10.6452	 -0.051706	
10.6784	 -0.097676	
10.7117	 -0.117599	
10.745	  0.004374	
10.7782	  0.034795	
10.8115	 -0.030518	
10.8448	 -0.068125	
